inDegrees=yes
name=ik_data_2024_11_07_18_11
DataType=double
version=3
OpenSimVersion=4.5.1
endheader
time	pelvis_tilt	pelvis_list	pelvis_rotation	pelvis_tx	pelvis_ty	pelvis_tz	hip_flexion_r	hip_adduction_r	hip_rotation_r	knee_angle_r	knee_angle_r_beta	ankle_angle_r	subtalar_angle_r	mtp_angle_r	hip_flexion_l	hip_adduction_l	hip_rotation_l	knee_angle_l	knee_angle_l_beta	ankle_angle_l	subtalar_angle_l	mtp_angle_l	lumbar_extension	lumbar_bending	lumbar_rotation	arm_flex_r	arm_add_r	arm_rot_r	elbow_flex_r	pro_sup_r	wrist_flex_r	wrist_dev_r	arm_flex_l	arm_add_l	arm_rot_l	elbow_flex_l	pro_sup_l	wrist_flex_l	wrist_dev_l
0	-0.008301389223688919	0.005655470465389075	-16.95760373067218	0	0.9399999999999999	0	0.2873189102060254	-0.02435233819767389	-0.08599915485403445	0.5365182497090401	0.009364009954459858	-5.066401636752758	0	0	0.2827381142674646	-0.004398926936101695	-0.08522227292562923	0.5368405336275589	0.009369634869964241	-5.066401636752758	0	0	0	0	0	0	-4.413667884340823	0	65.04426527398462	49.59618042440579	0	0	0	-4.413667884340823	0	65.04426527398462	49.59618042440579	0	0
0.04705	-0.08112313333122735	-0.0110898394512309	-17.3671286751661	0	0.9399999999999999	0	0.2300761238922597	0.05039842934357143	0.3313607424006941	0.5169137722578994	0.009021847274804467	-5.066317709477112	0	0	0.3479135002905528	-0.04767433373722835	-0.4888955485156852	0.5231280484460525	0.009130306854916023	-5.066317709477112	0	0	0	0	0	0	-4.415232103884081	0	65.04713448786477	49.59259594512203	0	0	0	-4.415232103884081	0	65.04713448786477	49.59259594512203	0	0
0.08142000000000001	-0.1004577412572385	0.02290777287826638	-16.69684255342257	0	0.9399999999999999	0	0.1678465902933697	0.05136263998861929	-0.341331968622474	0.4901002160070004	0.008553862434057573	-5.066229309880685	0	0	0.3799022089049499	-0.01601757097170534	0.1840916374312645	0.5313437566213062	0.009273698012957214	-5.066229309880685	0	0	0	0	0	0	-4.41689225745271	0	65.05017383195221	49.58881228695927	0	0	0	-4.41689225745271	0	65.05017383195221	49.58881228695927	0	0
0.13312	-0.1828517139456356	0.02915581875177559	-16.59722177971812	0	0.9399999999999999	0	0.163261086810754	0.07409015026813924	-0.4323349295247836	0.4667165366485279	0.008145740238021592	-5.066172281388756	0	0	0.4543502254488414	-0.03327037786116167	0.2807095834043685	0.5254686872006636	0.009171158707783766	-5.066172281388756	0	0	0	0	0	0	-4.417997340936238	0	65.05218912667839	49.58634131504154	0	0	0	-4.417997340936238	0	65.05218912667839	49.58634131504154	0	0
0.1813	-0.1702387513387203	0.03728344742568557	-16.45195713004275	0	0.9399999999999999	0	0.0989235954456901	0.1210222673022147	-0.5801308045160599	0.4398460111386398	0.007676761096132917	-5.066097084782002	0	0	0.4457529541448365	-0.0176449551148619	0.4273793752072703	0.5170818366257621	0.009024780551378956	-5.066097084782002	0	0	0	0	0	0	-4.419455704799641	0	65.05484899005909	49.58308138691349	0	0	0	-4.419455704799641	0	65.05484899005909	49.58308138691349	0	0
0.23223	-0.25267292846047	0.01544827600718878	-16.81782860934046	0	0.9399999999999999	0	0.1862264101704288	0.1679780814818537	-0.2046015672594357	0.4405461301886569	0.007688980478711651	-5.066018269606814	0	0	0.515774389520942	-0.06712321004333034	0.06506204918408393	0.5123143138173455	0.008941571581208159	-5.066018269606814	0	0	0	0	0	0	-4.420949609841505	0	65.05758684937594	49.57968840794256	0	0	0	-4.420949609841505	0	65.05758684937594	49.57968840794256	0	0
0.27183	-0.3009910136197975	0.00863767919197239	-16.98231028988248	0	0.9399999999999999	0	0.163988378957741	0.1947601245852686	-0.04318466489332318	0.437364625114476	0.007633452739998288	-5.065949129681982	0	0	0.5583225505619989	-0.09021675932655353	-0.1028761203148308	0.5215255097680797	0.009102337278594838	-5.065949129681982	0	0	0	0	0	0	-4.422361576124589	0	65.06012963039184	49.5766474605873	0	0	0	-4.422361576124589	0	65.06012963039184	49.5766474605873	0	0
0.31496	-0.3451885777123432	0.008975671353619855	-17.03497762166424	0	0.9399999999999999	0	0.1787597247041402	0.2544639044013962	0.007382656975857133	0.4009134030969203	0.006997258899416489	-5.065905057515766	0	0	0.601864038915322	-0.1023147450901715	-0.1441902111609342	0.5071733940374786	0.00885184560446858	-5.065905057515766	0	0	0	0	0	0	-4.423208356237489	0	65.06167788458528	49.57474159474378	0	0	0	-4.423208356237489	0	65.06167788458528	49.57474159474378	0	0
0.35786	-0.4449399238191443	0.03221459433091814	-16.54105340181094	0	0.9399999999999999	0	0.2169433291304862	0.2665472734563357	-0.4797067403244563	0.4075008423199072	0.007112231403132628	-5.065808575067797	0	0	0.7012961432766931	-0.1062715261468829	0.345532441651784	0.5188671492363713	0.009055940134611461	-5.065808575067797	0	0	0	0	0	0	-4.425043119180849	0	65.06503864782044	49.57058293251794	0	0	0	-4.425043119180849	0	65.06503864782044	49.57058293251794	0	0
0.40056	-0.5082486665783527	0.05816227613180609	-16.03250297934177	0	0.9399999999999999	0	0.2850547871196262	0.3000011342512253	-0.9893956486887953	0.3918420836001767	0.006838934506697959	-5.065719563965472	0	0	0.7709022092535549	-0.09123180902943215	0.8499434859917075	0.5146725257591807	0.008982730144053031	-5.065719563965472	0	0	0	0	0	0	-4.426724121137606	0	65.06812281886751	49.56675385732441	0	0	0	-4.426724121137606	0	65.06812281886751	49.56675385732441	0	0
0.45049	-0.5499403968820884	0.08413465380657296	-15.49317946355711	0	0.9399999999999999	0	0.2546654921354659	0.2965743910648949	-1.522660183389957	0.3707400133745418	0.006470633902273567	-5.065592071183332	0	0	0.8226364997818133	-0.06884341211193222	1.386914717425983	0.5140320313512013	0.008971551407793181	-5.065592071183332	0	0	0	0	0	0	-4.429121397049822	0	65.0725271274467	49.56127460498502	0	0	0	-4.429121397049822	0	65.0725271274467	49.56127460498502	0	0
0.49485	-0.5912287564676402	0.07984041813667099	-15.6388713978978	0	0.9399999999999999	0	0.2503656984186444	0.3577485421904631	-1.373816594441359	0.3510217810357854	0.006126485825289046	-5.065508425387611	0	0	0.8557115137028264	-0.08297949779815053	1.247151942234235	0.5065077510843146	0.008840227943293168	-5.065508425387611	0	0	0	0	0	0	-4.430755594087423	0	65.07550214535546	49.55764092437749	0	0	0	-4.430755594087423	0	65.07550214535546	49.55764092437749	0	0
0.5329199999999999	-0.6420348817677493	0.06635702939208012	-15.78622581613322	0	0.9399999999999999	0	0.3010924127578801	0.4446255966972953	-1.224930516404942	0.3338929174690848	0.005827530758925222	-5.065123458807119	0	0	0.8972500229982571	-0.114453506398039	1.09556310672528	0.5064527842740952	0.008839268591475522	-5.065123458807119	0	0	0	0	0	0	-4.437722121258538	0	65.08844486886362	49.54123933764519	0	0	0	-4.437722121258538	0	65.08844486886362	49.54123933764519	0	0
0.58513	-0.7044196748437601	0.06121158328138793	-16.06895186357525	0	0.9399999999999999	0	0.3553664891456791	0.4902547381973764	-0.9391031016678608	0.3599305418648222	0.006281973034028438	-5.065055408277645	0	0	0.9549726340697341	-0.1426509371132473	0.8172918468770586	0.4946161057650412	0.008632679578992474	-5.065055408277645	0	0	0	0	0	0	-4.439071903582582	0	65.09089681891187	49.53826482631606	0	0	0	-4.439071903582582	0	65.09089681891187	49.53826482631606	0	0
0.6299400000000001	-0.7016947402027111	0.06314183477998343	-16.08316027913769	0	0.9399999999999999	0	0.3220532638217772	0.5367156297281759	-0.9180747232771556	0.345393601745153	0.006028255565774952	-5.065010955516874	0	0	0.964323219991547	-0.1348801791699938	0.8032309254516264	0.5049208480584508	0.008812531260581985	-5.065010955516874	0	0	0	0	0	0	-4.439918955815088	0	65.09244944307143	49.53634541445435	0	0	0	-4.439918955815088	0	65.09244944307143	49.53634541445435	0	0
0.67122	-0.6807486801603688	0.06385332726797309	-16.10680119892674	0	0.9399999999999999	0	0.2796398271540436	0.5760763801444336	-0.8929327907650365	0.3431506490982735	0.005989108657120583	-5.064967849541822	0	0	0.947820469991054	-0.1303922770260776	0.7781226244464093	0.510063950388456	0.008902295330007567	-5.064967849541822	0	0	0	0	0	0	-4.440735707534711	0	65.09394859716372	49.53448704204865	0	0	0	-4.440735707534711	0	65.09394859716372	49.53448704204865	0	0
0.74746	-0.6797978888070436	0.08260941156480212	-15.55102209614514	0	0.9399999999999999	0	0.3011435627654227	0.6089444551033604	-1.448010614981818	0.3079440406901619	0.005374637421938716	-5.064865891456069	0	0	0.9426225240056564	-0.1046375759942604	1.329588066360051	0.506258384549111	0.008835875676209574	-5.064865891456069	0	0	0	0	0	0	-4.442666741720894	0	65.09749440101587	49.53008982546111	0	0	0	-4.442666741720894	0	65.09749440101587	49.53008982546111	0	0
0.76479	-0.7043482369455278	0.06345973364865726	-15.88992201770166	0	0.9399999999999999	0	0.3221433968834091	0.6437928207864211	-1.094453391037671	0.3026825797366551	0.005282807604834903	-5.064739890529641	0	0	0.9573883713684651	-0.1394877738425573	0.9996331732387727	0.5117060615515756	0.008930955576487758	-5.064739890529641	0	0	0	0	0	0	-4.445053139519317	0	65.10187759193096	49.52465446631516	0	0	0	-4.445053139519317	0	65.10187759193096	49.52465446631516	0	0
0.79805	-0.7205987487459264	0.04010364329716806	-16.30368243182094	0	0.9399999999999999	0	0.3762274086146192	0.7070774384705738	-0.6828191814251573	0.2781587277043731	0.004854785641599679	-5.064633459524791	0	0	0.9662084313927212	-0.1702129290977857	0.5793402811384244	0.5053893276761176	0.008820707772388752	-5.064633459524791	0	0	0	0	0	0	-4.447053764186067	0	65.1055593622865	49.52007219790732	0	0	0	-4.447053764186067	0	65.1055593622865	49.52007219790732	0	0
0.84849	-0.7362397140782905	0.08319938777617873	-15.54678241833538	0	0.9399999999999999	0	0.3641741193232663	0.7180169722481363	-1.43587533556565	0.2626145001140043	0.004583487690468399	-5.064104734095217	0	0	1.005703697892771	-0.1202364396306166	1.333699294480674	0.520086998277791	0.009077230516761532	-5.064104734095217	0	0	0	0	0	0	-4.457054825264803	0	65.12395268639939	49.49724393610398	0	0	0	-4.457054825264803	0	65.12395268639939	49.49724393610398	0	0
0.89911	-0.787230237281351	0.1066078986041874	-14.98321719985274	0	0.9399999999999999	0	0.404195855125866	0.7016463592630252	-1.995031876416643	0.2446179391330041	0.004269388447314005	-5.063644816004714	0	0	1.051962869375469	-0.1018278123637783	1.89782535304605	0.5121640652242068	0.008938949248561399	-5.063644816004714	0	0	0	0	0	0	-4.465982104349553	0	65.14028800885083	49.47721209176771	0	0	0	-4.465982104349553	0	65.14028800885083	49.47721209176771	0	0
0.93912	-0.8731837374913206	0.1300437030815223	-14.66653800756659	0	0.9399999999999999	0	0.481164082360116	0.778859316425094	-2.304297011922203	0.217935121493175	0.003803685425789764	-5.063342082553902	0	0	1.146691440786984	-0.09556081327591441	2.212738996856374	0.5149993889709762	0.008988434983302505	-5.063342082553902	0	0	0	0	0	0	-4.471900354241913	0	65.15109801173989	49.46400030750171	0	0	0	-4.471900354241913	0	65.15109801173989	49.46400030750171	0	0
0.99002	-0.8834441247591622	0.1587264932050884	-14.05701399465384	0	0.9399999999999999	0	0.493179024200324	0.7779554950376286	-2.911322285322059	0.1923576867303681	0.003357274974964729	-5.062717222409654	0	0	1.16946119974486	-0.05690991445242513	2.823357132630074	0.5238787776237123	0.009143409550856975	-5.062717222409654	0	0	0	0	0	0	-4.484085800200906	0	65.17340142186947	49.43670038662123	0	0	0	-4.484085800200906	0	65.17340142186947	49.43670038662123	0	0
1.03281	-0.9515221241196244	0.1804955174428861	-13.81970786618623	0	0.9399999999999999	0	0.5873384976911982	0.7967165577384742	-3.14001972897399	0.1905331628971204	0.003325431026793448	-5.062437152556475	0	0	1.242269838345442	-0.04469470672469141	3.046832826948876	0.5253641452529959	0.009169334106590517	-5.062437152556475	0	0	0	0	0	0	-4.489588155997558	0	65.18346375963441	49.42442395996023	0	0	0	-4.489588155997558	0	65.18346375963441	49.42442395996023	0	0
1.08168	-0.9887048251842433	0.1744222093888244	-13.719776234643	0	0.9399999999999999	0	0.6329193762385829	0.8072716571568199	-3.244808244025097	0.1839701711835172	0.003210885212609968	-5.061634668525555	0	0	1.26759849000264	-0.06642256889459325	3.16170923122829	0.5147252468591025	0.008983650300831938	-5.061634668525555	0	0	0	0	0	0	-4.504935353387304	0	65.21175196913067	49.38945699824332	0	0	0	-4.504935353387304	0	65.21175196913067	49.38945699824332	0	0
